#!OML:ASF E:/inclinewalkrobotboard/Project1/Captureday1/Session1/subject1.ASF
:FULLY-SPECIFIED
:DEGREES
176
root 0 0 0 12.056749757178236 5.9778654648804865 -5.594284482328208
lowerback 15.913035751633647 2.1879971913135856 -0.47690600814175604
upperback -3.7785917599956695 2.389235739572337 -0.39799249485422306
thorax -12.269824379122406 1.2449827846001333 -0.21507227478481328
lowerneck -10.469600384503263 8.576113409415678 18.33616876212588
upperneck 38.77799669921741 8.012756249313002 -3.5389682950471872
head 16.119276334395032 5.738455760419735 -3.4417982649945777
rclavicle 9.082359565787766E-15 1.299046408803343E-14
rhumerus -3.929062100959511 12.404617826752084 -77.80894641828095
rradius 33.5456321291602
rwrist -7.757991377198426
rhand -25.589802315733003 -20.552116062228365
rfingers 7.125019999999952
rthumb 0.9643363220615164 -51.0637289450265
lclavicle 5.1667522688598706E-15 7.115133396347567E-15
lhumerus -48.686754031188386 17.407629428870912 68.27210160546558
lradius 52.82563432433035
lwrist -11.56988955521361
lhand -15.06994034800035 17.258270770603808
lfingers 7.125019999999902
lthumb 11.103666050523275 46.55136893980394
rfemur -1.5489294449599251 18.74622634940156 35.57101239679278
rtibia -7.330161032532708
rfoot 6.089026635948777 -27.655888563576184
rtoes -52.46590003040024
lfemur -19.654959847920427 -32.449319725863795 -17.840070544431885
ltibia -6.787198479609771
lfoot -45.2113419331053 8.228363213392027
ltoes -32.840373369106025
177
root 0 0 0 11.880999197691752 5.04945563343332 -5.645599139795717
lowerback 15.761998769832609 2.357321514242434 -0.6524623815757424
upperback -3.867111838572681 2.5569454010327606 -0.9115114638026807
thorax -12.276922306976665 1.308789195347519 -0.7394488872881597
lowerneck -10.467781754711083 8.888949812674635 18.50588655548775
upperneck 38.741167883464286 8.459786924018815 -3.667503915834845
head 16.115638926824918 5.952939579960573 -3.461768354127397
rclavicle 9.171855666926693E-15 1.305600603267394E-14
rhumerus -3.749748165245104 12.448286628059831 -77.76326236729744
rradius 33.888136444533004
rwrist -8.020912347460344
rhand -25.613869525009356 -20.590714524439033
rfingers 7.125019999999952
rthumb 0.9406996262991765 -51.10436799365985
lclavicle 5.288106890978954E-15 7.32179769676444E-15
lhumerus -48.47932436217509 17.630351453656388 68.0685517045935
lradius 52.81588432326171
lwrist -11.580330760303386
lhand -14.999039442275649 17.232072222308297
lfingers 7.125019999999903
lthumb 11.172481530315533 46.52155474119617
rfemur -1.6102029125599584 18.678242808860126 35.5124252646319
rtibia -7.243408795123646
rfoot 6.067979551669588 -27.605913933032035
rtoes -52.595139463320784
lfemur -20.005149411201778 -32.18031944870448 -17.826411481614482
ltibia -6.330064039480277
lfoot -44.94331526074384 8.040106135024827
ltoes -33.0554989626909
178
root 0 0 0 11.815481512611312 4.835551893673618 -5.63089163156492
lowerback 15.581934342808218 2.594556684038568 -0.6596304066558475
upperback -3.9606035061612634 2.838717303491597 -1.357890179433284
thorax -12.280808796717123 1.4224360241258864 -1.3009139431794985
lowerneck -10.486217109424759 9.064471421240754 18.474044936787173
upperneck 38.49468919671432 8.778963253563415 -3.905055735753679
head 16.045827315681674 6.073566163590762 -3.4986745396964385
rclavicle 9.13109454912461E-15 1.3034070569716218E-14
rhumerus -3.4855370141107374 12.446191837095139 -77.71767702975379
rradius 34.15682535297141
rwrist -8.237836816712333
rhand -25.64621223361634 -20.613114498785254
rfingers 7.125019999999952
rthumb 0.9089500080238526 -51.12935088323156
lclavicle 5.2221672957497515E-15 7.426026870989492E-15
lhumerus -48.26159497189666 17.727529890219927 67.94185705662191
lradius 52.910196475805506
lwrist -11.564330499039354
lhand -14.984165116000874 17.20858431550456
lfingers 7.125019999999903
lthumb 11.187136879268412 46.49782168295144
rfemur -1.6056149210735287 18.57894512235969 35.4674369841005
rtibia -7.158817052989715
rfoot 6.0875081735840055 -27.556378738685886
rtoes -52.707004322750045
lfemur -20.293799628603427 -31.89931668619154 -17.886494176765428
ltibia -5.842331342844211
lfoot -44.55209991894176 7.768833616781455
ltoes -33.33132767328806
179
root 0 0 0 11.82827458863546 5.014219386448433 -5.498658056823379
lowerback 15.264783587598078 2.855487285715016 -0.5067860175485241
upperback -4.09508264392253 3.1845681330226294 -1.7239100211177816
thorax -12.26685754881354 1.561015507085215 -1.8827184394407772
lowerneck -10.5562676726411 9.095827934914915 18.198785210535995
upperneck 38.086810360180166 8.970714948300568 -4.314051814253137
head 15.922326007966502 6.093835827296571 -3.5695732561877325
rclavicle 8.979682135602705E-15 1.2948950521256711E-14
rhumerus -3.189652853595361 12.394103768900226 -77.66405312967635
rradius 34.34632454077358
rwrist -8.415284728521819
rhand -25.681396533829428 -20.629366299550984
rfingers 7.125019999999952
rthumb 0.8743131706276444 -51.148224918184745
lclavicle 5.017701366496104E-15 7.463765888290522E-15
lhumerus -48.0091391119094 17.763132197022152 67.83673557439384
lradius 53.07882371406468
lwrist -11.549223034312156
lhand -15.016857562206745 17.17829926605212
lfingers 7.125019999999902
lthumb 11.155847741600265 46.47006570091567
rfemur -1.4784199352237835 18.4667811111336 35.42154707916025
rtibia -7.152011230536935
rfoot 6.198674896691909 -27.547292614480796
rtoes -52.84658822896812
lfemur -20.452175439769217 -31.65547611424815 -18.010362491214188
ltibia -5.429948067929153
lfoot -44.0966358781725 7.4608731907084405
ltoes -33.61664681899169
